<?xml version="1.0" encoding="UTF-8"?>
<svg id="_레이어_1" data-name="레이어_1" xmlns="http://www.w3.org/2000/svg" width="11.3mm" height="11.3mm" baseProfile="tiny" version="1.2" viewBox="0 0 32 32">
  <!-- Generator: Adobe Illustrator 29.8.5, SVG Export Plug-In . SVG Version: 2.1.1 Build 2)  -->
  <path d="M16,28.5c6.9,0,12.5-5.6,12.5-12.5S22.9,3.5,16,3.5,3.5,9.1,3.5,16s5.6,12.5,12.5,12.5ZM16,23.5c-.8,0-1.5-.7-1.5-1.5s.7-1.5,1.5-1.5,1.5.7,1.5,1.5-.7,1.5-1.5,1.5ZM17.5,18c0,.8-.7,1.5-1.5,1.5s-1.5-.7-1.5-1.5h0v-8c0-.8.7-1.5,1.5-1.5s1.5.7,1.5,1.5v8Z" fill="#d9d9d9"/>
</svg>