<?xml version="1.0" encoding="UTF-8"?>
<svg id="_레이어_1" data-name="레이어_1" xmlns="http://www.w3.org/2000/svg" width="11.3mm" height="11.3mm" baseProfile="tiny" version="1.2" viewBox="0 0 32 32">
  <!-- Generator: Adobe Illustrator 29.8.5, SVG Export Plug-In . SVG Version: 2.1.1 Build 2)  -->
  <path d="M28.1,23L18.3,6.3c-.8-1.3-2.5-1.7-3.7-1-.4.2-.7.6-1,1L3.9,23c-.7,1.3-.3,2.9,1,3.6.4.2.9.4,1.4.4h19.6c1.5,0,2.7-1.2,2.7-2.6,0-.5-.1-1-.4-1.4ZM16,24c-.8,0-1.5-.7-1.5-1.5s.7-1.5,1.5-1.5,1.5.7,1.5,1.5-.7,1.5-1.5,1.5ZM17.5,18.5c0,.8-.7,1.5-1.5,1.5s-1.5-.7-1.5-1.5h0v-8c0-.8.7-1.5,1.5-1.5s1.5.7,1.5,1.5v8Z" fill="#ff6f00"/>
</svg>