<?xml version="1.0" encoding="utf-8"?>
<!-- Generator: Adobe Illustrator 27.6.1, SVG Export Plug-In . SVG Version: 6.00 Build 0)  -->
<svg version="1.2" baseProfile="tiny"
	 id="svg2" xmlns:inkscape="http://www.inkscape.org/namespaces/inkscape" xmlns:sodipodi="http://sodipodi.sourceforge.net/DTD/sodipodi-0.dtd" xmlns:svg="http://www.w3.org/2000/svg"
	 xmlns="http://www.w3.org/2000/svg" xmlns:xlink="http://www.w3.org/1999/xlink" x="0px" y="0px" width="815px" height="1024px"
	 viewBox="0 0 815 1024" overflow="visible" xml:space="preserve">
<sodipodi:namedview  bordercolor="#000000" borderopacity="0.25" id="namedview4" inkscape:current-layer="layer1" inkscape:cx="570.63517" inkscape:cy="562.857" inkscape:deskcolor="#d1d1d1" inkscape:pagecheckerboard="0" inkscape:pageopacity="0.0" inkscape:showpageshadow="2" inkscape:window-height="1369" inkscape:window-maximized="1" inkscape:window-width="3440" inkscape:window-x="-8" inkscape:window-y="-8" inkscape:zoom="0.70710678" pagecolor="#ffffff" showgrid="false">
	</sodipodi:namedview>
<g id="layer1" transform="matrix(0.99895749,0,0,0.99799215,-0.93372195,0.0585938)" inkscape:groupmode="layer" inkscape:label="background">
	<image width="814" height="1023" id="rect457" xlink:href="98F49AC.png"  transform="matrix(1.001 0 0 1.002 1.9357 0.9433)">
	</image>
</g>
<sodipodi:namedview  bordercolor="#000000" borderopacity="0.25" id="namedview4" inkscape:current-layer="g8" inkscape:cx="443.35595" inkscape:cy="564.27121" inkscape:deskcolor="#d1d1d1" inkscape:pagecheckerboard="true" inkscape:pageopacity="0.0" inkscape:showpageshadow="2" inkscape:window-height="1369" inkscape:window-maximized="1" inkscape:window-width="3440" inkscape:window-x="-8" inkscape:window-y="-8" inkscape:zoom="0.70710678" pagecolor="#ffffff" showgrid="false">
	</sodipodi:namedview>
<g>
	<path fill="#252523" d="M171.6,152.5C13.8,310.3,13.8,566.2,171.6,724l571.5-571.5C585.3-5.3,329.4-5.3,171.6,152.5z"/>
	<path fill="#FF0000" d="M644.4,872.9c157.8-157.8,157.8-413.7,0-571.5L72.9,872.9C230.7,1030.8,486.6,1030.8,644.4,872.9z"/>
</g>
<path fill="#FFFFFF" d="M220.5,419.6l30.8-30.8h282.1l62,62v154.8l-31.2,31.2h-30.8V481.9l-30.8-31.5H441v155.2l-31.2,31.2H379
	V450.4h-96.9v186.3h-30.8l-30.8-31.2V419.6z"/>
</svg>
