<?xml version="1.0" encoding="utf-8"?>
<!-- Generator: Adobe Illustrator 27.8.1, SVG Export Plug-In . SVG Version: 6.00 Build 0)  -->
<svg version="1.2" baseProfile="tiny"
	 id="svg526" xmlns:svg="http://www.w3.org/2000/svg" xmlns:inkscape="http://www.inkscape.org/namespaces/inkscape" xmlns:sodipodi="http://sodipodi.sourceforge.net/DTD/sodipodi-0.dtd"
	 xmlns="http://www.w3.org/2000/svg" xmlns:xlink="http://www.w3.org/1999/xlink" x="0px" y="0px" width="562px" height="238px"
	 viewBox="0 0 562 238" overflow="visible" xml:space="preserve">
<sodipodi:namedview  bordercolor="#000000" borderopacity="0.25" id="namedview528" inkscape:current-layer="svg526" inkscape:cx="278.75055" inkscape:cy="104.93173" inkscape:deskcolor="#d1d1d1" inkscape:pagecheckerboard="0" inkscape:pageopacity="0.0" inkscape:showpageshadow="2" inkscape:window-height="1369" inkscape:window-maximized="1" inkscape:window-width="3440" inkscape:window-x="-8" inkscape:window-y="-8" inkscape:zoom="12.179348" pagecolor="#ffffff" showgrid="false">
	</sodipodi:namedview>
<rect id="rect366" x="1" y="1" fill="#4D4D4D" width="560" height="237"/>
<g>
	<g>
		<path fill="#252523" d="M257,48.8c-13.6,13.6-13.6,35.7,0,49.3l49.3-49.3C292.7,35.2,270.7,35.2,257,48.8z"/>
		<path fill="#D7000F" d="M297.8,111c13.6-13.6,13.6-35.7,0-49.3L248.5,111C262.1,124.6,284.2,124.6,297.8,111z"/>
	</g>
	<path fill="#FFFFFF" d="M261.3,71.9l2.7-2.7h24.3l5.3,5.3v13.4l-2.7,2.7h-2.7V77.3l-2.7-2.7h-5.3V88l-2.7,2.7h-2.7V74.5h-8.4v16.1
		h-2.7l-2.7-2.7v-16C261,71.9,261.3,71.9,261.3,71.9z"/>
</g>
</svg>
