<?xml version="1.0" encoding="UTF-8"?>
<svg id="a" xmlns="http://www.w3.org/2000/svg" width="197.6mm" height="44.1mm" baseProfile="tiny" version="1.2" viewBox="0 0 560 125">
  <!-- Generator: Adobe Illustrator 29.8.5, SVG Export Plug-In . SVG Version: 2.1.1 Build 2)  -->
  <rect id="b" x="20" y="123" width="520" height="2" fill="red"/>
  <g id="c">
    <g id="d">
      <rect x="20" y="21.2" width="80.6" height="80.6" rx="9.6" ry="9.6" fill="#e9e9e9"/>
    </g>
  </g>
  <g>
    <g>
      <path d="M45.3,38.6c-10,10-10,26.3,0,36.3l36.3-36.3c-10-10-26.3-10-36.3,0Z" fill="#242523"/>
      <path d="M75.3,84.4c10-10,10-26.3,0-36.3l-36.3,36.3c10,10,26.3,10,36.3,0Z" fill="red"/>
    </g>
    <path d="M48.4,55.6l2-2h17.9l3.9,3.9v9.8l-2,2h-2v-9.8l-2-2h-3.9v9.8l-2,2h-2v-11.8h-6.2v11.8h-2l-2-2s0-11.8,0-11.8Z" fill="#fff"/>
  </g>
  <g>
    <path d="M115.6,35.9l2.7-2.7h24.3l5.3,5.3v13.3l-2.7,2.7h-2.7v-13.3l-2.7-2.7h-5.3v13.4l-2.7,2.7h-2.7v-16.1h-8.3v16.1h-2.7l-2.7-2.7v-16h0Z" fill="#444"/>
    <path d="M150.6,38.6l5.3-5.3h16.1l5.3,5.3v10.7l-5.3,5.3h-16.1l-5.3-5.3v-10.7ZM169.4,38.6h-10.7l-2.7,2.7v5.3l2.7,2.7h10.7l2.7-2.7v-5.3l-2.7-2.7Z" fill="#444"/>
    <path d="M180.1,35.9l2.7-2.7h24.3l5.3,5.3v13.3l-2.7,2.7h-2.7v-13.3l-2.7-2.7h-5.3v13.4l-2.7,2.7h-2.7v-16.1h-8.4v16.1h-2.7l-2.7-2.7v-16h0Z" fill="#444"/>
    <path d="M220.4,33.3h18.7l2.7,2.7v2.7h-21.4v2.7h16.1v5.3h-16.1v2.7h21.4v2.6l-2.7,2.7h-18.7l-5.3-5.3v-10.7l5.3-5.3h0Z" fill="#444"/>
    <path d="M244.6,35.9l2.7-2.7h18.7l5.3,5.3v13.3l-2.7,2.7h-2.7v-13.3l-2.7-2.7h-13.4v16.1h-2.7l-2.7-2.7v-16h0Z" fill="#444"/>
    <path d="M298,38.6h-8v16h-2.7l-2.7-2.7v-13.3h-10.7v-2.7l2.7-2.7h24v2.7l-2.7,2.7h0Z" fill="#444"/>
  </g>
  <g>
    <path d="M115.6,74.3l2.6-2.7h21.4l2.7,2.7v2.7h-21.4v2.7h18.7l2.7,2.7v8l-2.7,2.7h-24v-2.7l2.7-2.6h18.7v-2.7h-18.8l-2.6-2.7v-8h0Z" fill="#949494"/>
    <path d="M145.1,74.3l2.7-2.7h2.7v16.1h16.1l2.7,2.6v2.7h-24v-18.7h0Z" fill="#949494"/>
    <path d="M171.8,74.3l2.7-2.7h2.7v18.7l-2.7,2.7h-2.7v-18.7Z" fill="#949494"/>
    <path d="M179.9,77l5.3-5.3h18.7l2.7,2.7v2.7h-18.7l-2.7,2.7v5.3l2.7,2.7h18.7v2.6l-2.7,2.7h-18.7l-5.3-5.3v-10.7h0Z" fill="#949494"/>
    <path d="M214.6,71.7h18.7l2.7,2.7v2.7h-21.4v2.7h16.1v5.3h-16.1v2.7h21.4v2.6l-2.7,2.7h-18.7l-5.3-5.3v-10.7l5.3-5.3h0Z" fill="#949494"/>
    <path d="M241.4,71.7h18.7l5.3,5.3v5.3l-5.3,5.4h-1.6l4.3,5.3h-6.8l-4.3-5.3h-4.9v-5.4h10.7l2.7-2.6-2.7-2.7h-13.4v13.3l-2.7,2.7h-2.7v-18.7l2.7-2.7h0Z" fill="#949494"/>
  </g>
</svg>