<?xml version="1.0" encoding="UTF-8"?>
<svg id="_레이어_1" data-name=" 레이어 1" xmlns="http://www.w3.org/2000/svg" width="11.3mm" height="11.3mm" baseProfile="tiny" version="1.2" viewBox="0 0 32 32">
  <path d="M16,3.5c-6.9,0-12.5,5.6-12.5,12.5s5.6,12.5,12.5,12.5,12.5-5.6,12.5-12.5S22.9,3.5,16,3.5ZM22.9,13.7l-7.9,6.5s-.2.1-.3.1h-.2c-.2,0-.3,0-.5.1h0c-.2,0-.4,0-.5-.1h0c-.2,0-.3-.2-.4-.3h0l-3-3c-.6-.6-.6-1.5,0-2.1s1.5-.6,2.1,0l2,2,6.9-5.6c.6-.5,1.6-.4,2.1.2s.4,1.6-.2,2.1h-.1Z" fill="red" stroke-width="0"/>
</svg>