<?xml version="1.0" encoding="UTF-8"?>
<svg id="_레이어_1" data-name=" 레이어 1" xmlns="http://www.w3.org/2000/svg" width="11.3mm" height="11.3mm" baseProfile="tiny" version="1.2" viewBox="0 0 32 32">
  <path d="M16,28.5c6.9,0,12.5-5.6,12.5-12.5S22.9,3.5,16,3.5,3.5,9.1,3.5,16s5.6,12.5,12.5,12.5ZM16,23.5c-.8,0-1.5-.7-1.5-1.5s.7-1.5,1.5-1.5,1.5.7,1.5,1.5-.7,1.5-1.5,1.5ZM16,19.2c-.7,0-1.2-.6-1.2-1.2,0-1.2.7-2.3,1.7-2.9.8-.7,1.3-1.1,1.3-2.1s-.8-1.8-1.8-1.8-1.8.8-1.8,1.8-.6,1.2-1.2,1.2-1.2-.6-1.2-1.2c0-2.3,1.9-4.2,4.2-4.2s4.2,1.9,4.2,4.2-.8,3.1-2.2,4c-.6.5-.8.7-.8,1,0,.7-.6,1.2-1.2,1.3h0Z" fill="red" stroke-width="0"/>
</svg>