<?xml version="1.0" encoding="UTF-8"?>
<svg id="_레이어_1" data-name=" 레이어 1" xmlns="http://www.w3.org/2000/svg" width="169.3mm" height="169.3mm" baseProfile="tiny" version="1.2" viewBox="0 0 479.9 479.9">
  <rect x="153.3" width="173.4" height="222.6" fill="#e9e9e9" stroke-width="0"/>
  <rect y="0" width="479.9" height="479.9" fill="none" stroke-width="0"/>
  <path id="_패스_17-2" data-name=" 패스 17-2" d="M217,116c-15.6,15.5-15.6,40.8,0,56.3h0l56.4-56.4c-15.5-15.6-40.8-15.6-56.3,0h0Z" fill="#252523" stroke-width="0"/>
  <path id="_패스_18-2" data-name=" 패스 18-2" d="M263.4,187.1c15.6-15.5,15.6-40.8,0-56.3h0l-56.4,56.4c15.5,15.6,40.8,15.6,56.3,0h0Z" fill="red" stroke-width="0"/>
  <path id="_패스_19-2" data-name=" 패스 19-2" d="M221.8,142.4l3-3h27.8l6.1,6.1v15.3l-3.1,3.1h-3v-15.3l-3-3.1h-6.1v15.3l-3.1,3.1h-3v-18.4h-9.6v18.4h-3l-3-3.1v-18.3h0Z" fill="#fff" stroke-width="0"/>
  <path id="_패스_20" data-name=" 패스 20" d="M153.3,247.5l2.5-2.5h22.8l5,5v12.5l-2.5,2.5h-2.5v-12.5l-2.5-2.5h-5v12.5l-2.5,2.5h-2.5v-15.1h-7.8v15.1h-2.5l-2.5-2.5v-15Z" fill="#949494" stroke-width="0"/>
  <path id="_패스_21" data-name=" 패스 21" d="M186.2,250l5-5h15.1l5,5v10l-5,5h-15.1l-5-5v-10ZM203.7,250h-10l-2.5,2.5v5l2.5,2.5h10l2.5-2.5v-5l-2.5-2.5Z" fill="#949494" stroke-width="0"/>
  <path id="_패스_22" data-name=" 패스 22" d="M213.8,247.5l2.5-2.5h22.8l5,5v12.5l-2.5,2.5h-2.5v-12.5l-2.5-2.5h-5v12.5l-2.5,2.5h-2.5v-15.1h-7.8v15.1h-2.5l-2.5-2.5v-15Z" fill="#949494" stroke-width="0"/>
  <path id="_패스_23" data-name=" 패스 23" d="M251.6,245h17.5l2.5,2.5v2.5h-20.1v2.5h15.1v5h-15.1v2.5h20.1v2.5l-2.5,2.5h-17.5l-5-5v-10l5-5Z" fill="#949494" stroke-width="0"/>
  <path id="_패스_24" data-name=" 패스 24" d="M274,247.5l2.5-2.5h17.5l5,5v12.5l-2.5,2.5h-2.5v-12.5l-2.5-2.5h-12.6v15.1h-2.5l-2.5-2.5v-15h0Z" fill="#949494" stroke-width="0"/>
  <path id="_패스_25" data-name=" 패스 25" d="M324.1,250h-7.5v15h-2.5l-2.5-2.5v-12.5h-10v-2.5l2.5-2.5h22.5v2.5l-2.5,2.5Z" fill="#949494" stroke-width="0"/>
  <path id="_패스_26" data-name=" 패스 26" d="M169.8,283.3l2.5-2.5h20.1l2.5,2.5v2.5h-20.1v2.5h17.5l2.5,2.5v7.5l-2.5,2.5h-22.5v-2.5l2.5-2.5h17.6v-2.5h-17.6l-2.5-2.5v-7.5Z" fill="#949494" stroke-width="0"/>
  <path id="_패스_27" data-name=" 패스 27" d="M197.4,283.3l2.5-2.5h2.5v15.1h15.1l2.5,2.5v2.5h-22.5v-17.5h0Z" fill="#949494" stroke-width="0"/>
  <path id="_패스_28" data-name=" 패스 28" d="M222.5,283.3l2.5-2.5h2.5v17.5l-2.5,2.5h-2.5v-17.5Z" fill="#949494" stroke-width="0"/>
  <path id="_패스_29" data-name=" 패스 29" d="M230.1,285.8l5-5h17.6l2.5,2.5v2.5h-17.5l-2.5,2.5v5l2.5,2.5h17.5v2.5l-2.5,2.5h-17.6l-5-5v-10Z" fill="#949494" stroke-width="0"/>
  <path id="_패스_30" data-name=" 패스 30" d="M262.5,280.8h17.5l2.5,2.5v2.5h-20.1v2.5h15.1v5h-15.1v2.5h20.1v2.5l-2.5,2.5h-17.5l-5-5v-10l5-5Z" fill="#949494" stroke-width="0"/>
  <path id="_패스_31" data-name=" 패스 31" d="M287.6,280.8h17.5l5,5v5l-5,5h-1.5l4,5h-6.4l-4-5h-4.6v-5h10l2.5-2.5-2.5-2.5h-12.6v12.5l-2.5,2.5h-2.5v-17.5l2.5-2.5h0Z" fill="#949494" stroke-width="0"/>
</svg>