<?xml version="1.0" encoding="utf-8"?>
<!-- Generator: Adobe Illustrator 27.6.1, SVG Export Plug-In . SVG Version: 6.00 Build 0)  -->
<svg version="1.2" baseProfile="tiny"
	 id="svg2" xmlns:inkscape="http://www.inkscape.org/namespaces/inkscape" xmlns:sodipodi="http://sodipodi.sourceforge.net/DTD/sodipodi-0.dtd" xmlns:svg="http://www.w3.org/2000/svg"
	 xmlns="http://www.w3.org/2000/svg" xmlns:xlink="http://www.w3.org/1999/xlink" x="0px" y="0px" width="815px" height="1024px"
	 viewBox="0 0 815 1024" overflow="visible" xml:space="preserve">
<sodipodi:namedview  bordercolor="#000000" borderopacity="0.25" id="namedview4" inkscape:current-layer="g8" inkscape:cx="443.35595" inkscape:cy="564.27121" inkscape:deskcolor="#d1d1d1" inkscape:pagecheckerboard="true" inkscape:pageopacity="0.0" inkscape:showpageshadow="2" inkscape:window-height="1369" inkscape:window-maximized="1" inkscape:window-width="3440" inkscape:window-x="-8" inkscape:window-y="-8" inkscape:zoom="0.70710678" pagecolor="#ffffff" showgrid="false">
	</sodipodi:namedview>
<g>
	<path fill="#252523" d="M171.1,156.7c-157.8,157.8-157.8,413.7,0,571.5l571.5-571.5C584.8-1.2,328.9-1.2,171.1,156.7z"/>
	<path fill="#FF0000" d="M643.9,877.1c157.8-157.8,157.8-413.7,0-571.5L72.4,877.1C230.2,1034.9,486.1,1034.9,643.9,877.1z"/>
</g>
<path fill="#FFFFFF" d="M220,423.7l30.8-30.8H533l62,62v154.8l-31.2,31.2H533V486.1l-30.8-31.5h-61.6v155.2L409.4,641h-30.8V454.5
	h-96.9v186.3h-30.8L220,609.7V423.7z"/>
</svg>
